<?xml version="1.0" encoding="UTF-8" standalone="no"?>
<svg
   xmlns:dc="http://purl.org/dc/elements/1.1/"
   xmlns:cc="http://creativecommons.org/ns#"
   xmlns:rdf="http://www.w3.org/1999/02/22-rdf-syntax-ns#"
   xmlns:svg="http://www.w3.org/2000/svg"
   xmlns="http://www.w3.org/2000/svg"
   xmlns:sodipodi="http://sodipodi.sourceforge.net/DTD/sodipodi-0.dtd"
   xmlns:inkscape="http://www.inkscape.org/namespaces/inkscape"
   version="1.1"
   viewBox="0 0 26.458 33.0725"
   x="0px"
   y="0px"
   id="svg10"
   sodipodi:docname="noun_blood_2427391.svg"
   inkscape:version="1.0.2 (e86c870879, 2021-01-15)">
  <metadata
     id="metadata16">
    <rdf:RDF>
      <cc:Work
         rdf:about="">
        <dc:format>image/svg+xml</dc:format>
        <dc:type
           rdf:resource="http://purl.org/dc/dcmitype/StillImage" />
      </cc:Work>
    </rdf:RDF>
  </metadata>
  <defs
     id="defs14" />
  <sodipodi:namedview
     pagecolor="#ffffff"
     bordercolor="#666666"
     borderopacity="1"
     objecttolerance="10"
     gridtolerance="10"
     guidetolerance="10"
     inkscape:pageopacity="0"
     inkscape:pageshadow="2"
     inkscape:window-width="1920"
     inkscape:window-height="1016"
     id="namedview12"
     showgrid="false"
     inkscape:zoom="25.489456"
     inkscape:cx="13.229"
     inkscape:cy="16.536249"
     inkscape:window-x="0"
     inkscape:window-y="27"
     inkscape:window-maximized="1"
     inkscape:current-layer="svg10" />
  <path
     d="m 19.882498,1.1468481 c 0.896056,0.8131195 2.234421,2.6231259 3.364185,4.6890762 1.205469,2.2045657 2.152997,4.6401247 2.152997,6.1236967 0,2.95367 -2.323795,5.316141 -5.238594,5.470072 -0.227233,-2.133901 -1.396429,-4.911636 -2.808173,-7.4932745 -0.505665,-0.9246711 -1.0401,-1.8114022 -1.576919,-2.6358243 0.635168,-1.3380743 1.404183,-2.6945661 2.168991,-3.8270438 0.721439,-1.0682107 1.4005,-1.8444566 1.937513,-2.3267993 z m -7.50481,2.9865307 c 0.870573,0.7658935 2.068471,2.2889951 3.233906,4.1330639 0.03871,0.061941 0.07761,0.1247248 0.116214,0.187344 0.08641,0.1385669 0.171718,0.2814861 0.257476,0.4232712 1.40554,2.3487061 2.691464,5.0653731 3.257945,7.2388231 0.01233,0.0475 0.02342,0.09383 0.03506,0.140758 0.03293,0.132363 0.06294,0.262351 0.09017,0.390217 0.0127,0.05971 0.02514,0.11918 0.03657,0.177825 0.02717,0.139487 0.05052,0.275612 0.07013,0.40875 0.0045,0.03044 0.01041,0.06204 0.01453,0.09218 0.02294,0.169402 0.03956,0.333385 0.04909,0.490902 0.007,0.111416 0.01252,0.221358 0.01252,0.326095 0,3.963042 -3.205601,7.168643 -7.168643,7.168643 -1.88575,0 -3.561348,-0.771244 -4.8394203,-1.962134 C 8.7340626,22.52658 9.5169,21.153183 9.5169,19.599237 c 0,-0.130997 -0.00669,-0.259987 -0.017535,-0.388211 -7.745e-4,-0.0087 -0.00165,-0.01881 -0.00252,-0.02753 C 9.3125539,17.156611 7.7966253,15.509899 5.8326494,15.128077 6.5027916,13.076473 7.6450209,10.729318 8.8962425,8.672673 10.137092,6.6330886 11.442209,4.9610773 12.37762,4.1333594 Z m 10.330237,3.4363037 a 0.32679296,0.32679296 0 0 0 -0.278006,0.5114422 c 1.397397,2.0960003 1.419886,4.1645673 0.894136,5.4384713 a 0.32679296,0.32679296 0 1 0 0.603103,0.24945 C 24.549357,12.261337 24.47876,9.976995 22.973407,7.7189218 A 0.32679296,0.32679296 0 0 0 22.707915,7.5696437 Z m -6.821524,5.2450885 a 0.32679296,0.32679296 0 0 0 -0.277511,0.511442 c 1.784939,2.677409 1.818575,5.327483 1.139554,6.972837 a 0.32699652,0.32699652 0 1 0 0.604605,0.248965 c 0.77547,-1.879062 0.69171,-4.745589 -1.201204,-7.584877 a 0.32679296,0.32679296 0 0 0 -0.265482,-0.14827 z m 7.45518,1.109505 a 0.32679296,0.32679296 0 0 0 -0.03356,0 0.32679296,0.32679296 0 0 0 -0.268497,0.160793 c -0.12235,0.20076 -0.251156,0.365354 -0.371683,0.485891 a 0.32693163,0.32693163 0 1 0 0.463353,0.461347 c 0.165166,-0.165166 0.320502,-0.369095 0.465854,-0.607611 a 0.32679296,0.32679296 0 0 0 -0.255469,-0.50042 z m -18.3805896,1.77224 c 0.1162818,0 0.2309642,0.0078 0.3446288,0.01754 a 0.32679296,0.32679296 0 0 0 0.040072,0.0068 c 0.991439,0.09817 1.8645218,0.55988 2.4930407,1.245309 0.00931,0.01008 0.01834,0.02074 0.027549,0.03102 0.069162,0.07706 0.13499,0.156645 0.1978613,0.238942 0.00921,0.01202 0.017942,0.02433 0.027054,0.03654 0.060361,0.08104 0.1183077,0.164371 0.1723192,0.249963 0.011002,0.01745 0.021316,0.03538 0.032056,0.05312 0.050851,0.08356 0.099192,0.168539 0.1437625,0.255973 0.010197,0.02007 0.019203,0.04081 0.029051,0.06117 0.042341,0.08676 0.082781,0.174335 0.1187148,0.264483 0.0096,0.02414 0.017438,0.04924 0.02655,0.07367 0.032453,0.08647 0.063298,0.173802 0.089664,0.262982 0.011264,0.03829 0.019949,0.07745 0.030059,0.116214 0.020695,0.0789 0.041313,0.158292 0.057104,0.238941 0.010101,0.05205 0.016091,0.105561 0.02404,0.158293 0.010779,0.07028 0.02307,0.139944 0.030059,0.211384 0.012068,0.125258 0.019532,0.251708 0.019532,0.380194 0,0.118569 -0.00727,0.235801 -0.017535,0.351646 -0.0031,0.03354 -0.00717,0.06688 -0.011021,0.100191 -0.01044,0.09092 -0.02402,0.180607 -0.040577,0.269496 -0.00931,0.04924 -0.019435,0.09811 -0.030554,0.146767 -0.016702,0.07377 -0.035313,0.146874 -0.056105,0.218896 -0.016488,0.0568 -0.034596,0.112976 -0.053595,0.16881 -0.013648,0.04023 -0.028673,0.08007 -0.043581,0.119723 -0.040926,0.108498 -0.086484,0.214932 -0.1367542,0.319087 -0.014967,0.03102 -0.028828,0.06262 -0.04458,0.09315 -0.031154,0.06039 -0.064936,0.119084 -0.099183,0.177825 -0.016896,0.02898 -0.033985,0.05768 -0.051598,0.08617 -0.1168247,0.188846 -0.2499051,0.367592 -0.3977292,0.534483 -0.022392,0.0253 -0.045094,0.04992 -0.068125,0.07464 -0.1537467,0.164749 -0.3221207,0.317022 -0.5044241,0.454329 -0.023138,0.01735 -0.046092,0.03461 -0.069628,0.05157 -0.060196,0.04323 -0.1218652,0.08569 -0.1848431,0.125732 -0.014967,0.0097 -0.030476,0.01784 -0.045588,0.02753 -0.06448,0.03974 -0.129145,0.07842 -0.1963589,0.114711 a 0.32679296,0.32679296 0 0 0 -0.024544,0.01502 c -0.544865,0.288523 -1.1661138,0.45333 -1.8268147,0.45333 -2.1592006,0 -3.9026522,-1.743936 -3.9026522,-3.903137 0,-2.1592 1.7434516,-3.902652 3.9026522,-3.902652 z m 0.5775608,1.378012 H 4.3839735 a 0.32679296,0.32679296 0 0 0 -0.3265991,0.326599 v 1.296392 H 2.7600123 a 0.32679296,0.32679296 0 0 0 -0.3281016,0.326095 v 1.15109 a 0.32679296,0.32679296 0 0 0 0.3281016,0.327093 h 1.2973621 v 1.295908 a 0.32679296,0.32679296 0 0 0 0.3265991,0.326105 h 1.1545787 a 0.32679296,0.32679296 0 0 0 0.326095,-0.326105 v -1.295908 h 1.2984284 a 0.32679296,0.32679296 0 0 0 0.3281016,-0.327093 v -1.15109 A 0.32679296,0.32679296 0 0 0 7.1630756,18.697519 H 5.8646472 v -1.296392 a 0.32679296,0.32679296 0 0 0 -0.326095,-0.326599 z m -0.3265991,0.653198 v 1.295908 a 0.32679296,0.32679296 0 0 0 0.3265991,0.326599 h 1.2973621 v 0.498414 H 5.5385522 a 0.32679296,0.32679296 0 0 0 -0.3265991,0.326105 v 1.296877 H 4.7105338 V 20.174752 A 0.32679296,0.32679296 0 0 0 4.3839347,19.848647 H 3.0860879 V 19.350233 H 4.3839347 A 0.32679296,0.32679296 0 0 0 4.7105338,19.023634 V 17.727726 Z M 16.652082,20.866443 A 0.32679296,0.32679296 0 0 0 16.38309,21.02774 c -0.158089,0.259415 -0.324709,0.471487 -0.483389,0.630157 a 0.32690928,0.32690928 0 1 0 0.460843,0.463344 c 0.203309,-0.203309 0.399968,-0.457217 0.581069,-0.754378 a 0.32679296,0.32679296 0 0 0 -0.257475,-0.499916 0.32679296,0.32679296 0 0 0 -0.03206,-5.04e-4 z"
     dominant-baseline="auto"
     style="color:#000000;font-variant-ligatures:normal;font-variant-position:normal;font-variant-caps:normal;font-variant-numeric:normal;font-variant-alternates:normal;font-feature-settings:normal;text-indent:0;text-decoration:none;text-decoration-line:none;text-decoration-style:solid;text-decoration-color:#000000;text-transform:none;text-orientation:mixed;dominant-baseline:auto;white-space:normal;shape-padding:0;isolation:auto;mix-blend-mode:normal;solid-color:#000000;stroke-width:0.969338;color-rendering:auto;image-rendering:auto;shape-rendering:auto;fill:#ff4040;fill-opacity:1"
     id="path2" />
  <text
     x="0"
     y="41.458"
     fill="#000000"
     font-size="5px"
     font-weight="bold"
     font-family="'Helvetica Neue', Helvetica, Arial-Unicode, Arial, Sans-serif"
     id="text6">Created by mambu</text>
  <text
     x="0"
     y="46.458"
     fill="#000000"
     font-size="5px"
     font-weight="bold"
     font-family="'Helvetica Neue', Helvetica, Arial-Unicode, Arial, Sans-serif"
     id="text8">from the Noun Project</text>
</svg>
