<svg xmlns="http://www.w3.org/2000/svg" xmlns:xlink="http://www.w3.org/1999/xlink" version="1.1" x="0px" y="0px" viewBox="0 0 100 100" style="enable-background:new 0 0 100 100" xml:space="preserve"><g><path d="M50,14.852c-11.312,0-20.481,8.938-20.481,21.243c0,7.72,3.609,11.454,9.092,15.452v5.814   c0.848,0.901,1.813,1.695,2.87,2.372v-3.854l1.492,1.533v3.164c1.903,0.937,4.041,1.501,6.307,1.597v-4.761h1.491v4.756   c2.09-0.104,4.063-0.61,5.846-1.438v-3.318l1.492-1.533v4.061c1.188-0.718,2.27-1.584,3.204-2.578v-5.76   c5.524-3.992,9.169-7.75,9.169-15.507C70.48,23.789,61.312,14.852,50,14.852z M41.883,46.896c-3.684,0-6.67-2.986-6.67-6.67   s2.986-3.72,6.67-3.72s6.67,0.036,6.67,3.72S45.567,46.896,41.883,46.896z M48.813,51.994c-0.766,0.76-1.819,0.943-2.353,0.403   c-0.534-0.537-0.346-1.588,0.421-2.349c0.767-0.761,1.82-0.941,2.354-0.405S49.579,51.232,48.813,51.994z M53.541,52.397   c-0.534,0.54-1.588,0.356-2.354-0.403c-0.766-0.762-0.954-1.814-0.42-2.351c0.533-0.536,1.587-0.356,2.353,0.405   C53.885,50.809,54.074,51.86,53.541,52.397z M58.117,46.896c-3.684,0-6.67-2.986-6.67-6.67s2.986-3.72,6.67-3.72   s6.67,0.036,6.67,3.72S61.801,46.896,58.117,46.896z M79.172,61.786c-2.992,1.753-6.1-0.03-6.1-0.03L55.936,71.785l4.102,2.398   c0,0,3.107-1.781,6.1-0.029c1.588,0.927,2.122,2.968,1.192,4.556c-0.586,1-1.612,1.579-2.69,1.641   c0.477,0.969,0.475,2.147-0.113,3.149c-0.928,1.588-2.969,2.121-4.556,1.192c-2.993-1.751-2.96-5.333-2.96-5.333L50,75.258   l-7.009,4.102c0,0,0.031,3.582-2.961,5.333c-1.587,0.929-3.627,0.396-4.558-1.192c-0.585-1.002-0.587-2.181-0.112-3.149   c-1.077-0.062-2.106-0.641-2.69-1.641c-0.93-1.588-0.397-3.629,1.192-4.556c2.992-1.752,6.1,0.029,6.1,0.029l4.101-2.398   L26.928,61.756c0,0-3.107,1.783-6.1,0.03c-1.589-0.927-2.122-2.968-1.193-4.556c0.585-1,1.615-1.58,2.691-1.642   c-0.474-0.969-0.473-2.147,0.113-3.149c0.93-1.587,2.97-2.12,4.558-1.191c2.992,1.75,2.96,5.333,2.96,5.333L50,68.311   l20.044-11.729c0,0-0.033-3.583,2.96-5.333c1.588-0.929,3.628-0.396,4.556,1.191c0.588,1.002,0.589,2.181,0.112,3.149   c1.079,0.062,2.106,0.642,2.691,1.642C81.295,58.818,80.762,60.859,79.172,61.786z M50,0C22.386,0,0,22.386,0,50s22.386,50,50,50   s50-22.386,50-50S77.614,0,50,0z M50,93.632c-24.109,0-43.654-19.544-43.654-43.654C6.346,25.869,25.891,6.324,50,6.324   s43.654,19.545,43.654,43.654C93.654,74.088,74.109,93.632,50,93.632z"/></g></svg>