<?xml version="1.0" encoding="UTF-8" standalone="no"?>
<svg
   xmlns:dc="http://purl.org/dc/elements/1.1/"
   xmlns:cc="http://creativecommons.org/ns#"
   xmlns:rdf="http://www.w3.org/1999/02/22-rdf-syntax-ns#"
   xmlns:svg="http://www.w3.org/2000/svg"
   xmlns="http://www.w3.org/2000/svg"
   xmlns:sodipodi="http://sodipodi.sourceforge.net/DTD/sodipodi-0.dtd"
   xmlns:inkscape="http://www.inkscape.org/namespaces/inkscape"
   version="1.1"
   id="svg2"
   xml:space="preserve"
   width="393.25998"
   height="267.12534"
   viewBox="0 0 393.25998 267.12532"
   sodipodi:docname="eu-ban.svg"
   inkscape:version="1.0.2 (e86c870879, 2021-01-15)"><metadata
     id="metadata8"><rdf:RDF><cc:Work
         rdf:about=""><dc:format>image/svg+xml</dc:format><dc:type
           rdf:resource="http://purl.org/dc/dcmitype/StillImage" /><dc:title></dc:title></cc:Work></rdf:RDF></metadata><defs
     id="defs6" /><sodipodi:namedview
     pagecolor="#ffffff"
     bordercolor="#666666"
     borderopacity="1"
     objecttolerance="10"
     gridtolerance="10"
     guidetolerance="10"
     inkscape:pageopacity="0"
     inkscape:pageshadow="2"
     inkscape:window-width="1920"
     inkscape:window-height="1016"
     id="namedview4"
     showgrid="false"
     inkscape:zoom="0.75089068"
     inkscape:cx="198.19866"
     inkscape:cy="134.29457"
     inkscape:window-x="0"
     inkscape:window-y="27"
     inkscape:window-maximized="1"
     inkscape:current-layer="g10"
     inkscape:document-rotation="0"
     fit-margin-top="0"
     fit-margin-left="0"
     fit-margin-right="0"
     fit-margin-bottom="0" /><g
     id="g10"
     inkscape:groupmode="layer"
     inkscape:label="ink_ext_XXXXXX"
     transform="matrix(1.3333333,0,0,-1.3333333,-198.468,680.74532)"><g
       id="g946"
       inkscape:export-xdpi="160"
       inkscape:export-ydpi="160"><g
         id="g12"
         transform="scale(0.1)"><path
           d="M 1488.51,5105.59 H 4437.96 V 3102.15 H 1488.51 v 2003.44"
           style="fill:#ffffff;fill-opacity:1;fill-rule:nonzero;stroke:none"
           id="path14" /><path
           d="M 1545.23,5050.66 H 4381.24 V 3159.96 H 1545.23 v 1890.7"
           style="fill:#254aa5;fill-opacity:1;fill-rule:nonzero;stroke:none"
           id="path16" /><path
           d="m 2902.8,4638.71 59.84,43.67 59.85,-43.67 -22.77,70.63 60.78,43.67 h -74.93 l -22.93,71.48 -22.92,-71.56 -74.88,0.08 60.73,-43.67 -22.77,-70.63"
           style="fill:#fff200;fill-opacity:1;fill-rule:nonzero;stroke:none"
           id="path18" /><path
           d="m 2593.11,4555.51 59.85,43.67 59.81,-43.67 -22.74,70.62 60.74,43.67 h -74.92 l -22.93,71.57 -22.93,-71.64 -74.88,0.07 60.74,-43.67 -22.74,-70.62"
           style="fill:#fff200;fill-opacity:1;fill-rule:nonzero;stroke:none"
           id="path20" /><path
           d="m 2426.36,4514.26 -22.93,-71.64 -74.88,0.08 60.74,-43.68 -22.77,-70.62 59.84,43.67 59.84,-43.67 -22.77,70.62 60.74,43.68 h -74.88 l -22.93,71.56"
           style="fill:#fff200;fill-opacity:1;fill-rule:nonzero;stroke:none"
           id="path22" /><path
           d="m 2343.23,4062.77 59.81,-43.67 -22.74,70.63 60.75,43.67 h -74.89 l -22.93,71.56 -22.93,-71.72 -74.92,0.16 60.78,-43.67 -22.77,-70.63 59.84,43.67"
           style="fill:#fff200;fill-opacity:1;fill-rule:nonzero;stroke:none"
           id="path24" /><path
           d="m 2449.29,3823.16 -22.93,71.57 -22.93,-71.64 -74.88,0.07 60.74,-43.67 -22.77,-70.62 59.84,43.75 59.84,-43.75 -22.77,70.62 60.74,43.67 h -74.88"
           style="fill:#fff200;fill-opacity:1;fill-rule:nonzero;stroke:none"
           id="path26" /><path
           d="m 2676.32,3596.13 -22.93,71.49 -22.89,-71.57 -74.93,0.08 60.75,-43.67 -22.73,-70.62 59.84,43.67 59.8,-43.67 -22.73,70.62 60.74,43.67 h -74.92"
           style="fill:#fff200;fill-opacity:1;fill-rule:nonzero;stroke:none"
           id="path28" /><path
           d="m 2985.61,3513.87 -22.92,71.56 -22.89,-71.64 -74.92,0.08 60.73,-43.67 -22.73,-70.63 59.85,43.67 59.8,-43.67 -22.77,70.63 60.78,43.67 h -74.93"
           style="fill:#fff200;fill-opacity:1;fill-rule:nonzero;stroke:none"
           id="path30" /><path
           d="m 3294.91,3596.13 -22.89,71.49 -22.97,-71.57 -74.84,0.08 60.7,-43.67 -22.73,-70.62 59.84,43.67 59.84,-43.67 -22.81,70.62 60.79,43.67 h -74.93"
           style="fill:#fff200;fill-opacity:1;fill-rule:nonzero;stroke:none"
           id="path32" /><path
           d="m 3522.02,3823.16 -22.97,71.57 -22.96,-71.64 -74.85,0.07 60.78,-43.67 -22.81,-70.62 59.84,43.75 59.84,-43.75 -22.8,70.62 60.77,43.67 h -74.84"
           style="fill:#fff200;fill-opacity:1;fill-rule:nonzero;stroke:none"
           id="path34" /><path
           d="m 3679.13,4134.26 h -74.92 l -22.97,71.56 -22.89,-71.64 -74.92,0.08 60.78,-43.67 -22.73,-70.63 59.76,43.75 59.85,-43.75 -22.74,70.63 60.78,43.67"
           style="fill:#fff200;fill-opacity:1;fill-rule:nonzero;stroke:none"
           id="path36" /><path
           d="m 3439.21,4329.34 59.84,43.67 59.84,-43.67 -22.8,70.62 60.77,43.59 h -74.84 l -22.97,71.57 -22.96,-71.64 -74.85,0.07 60.78,-43.59 -22.81,-70.62"
           style="fill:#fff200;fill-opacity:1;fill-rule:nonzero;stroke:none"
           id="path38" /><path
           d="m 3272.88,4741.29 -22.89,-71.64 -74.92,0.15 60.7,-43.75 -22.73,-70.62 59.92,43.75 59.77,-43.75 -22.74,70.62 60.78,43.75 h -75 l -22.89,71.49"
           style="fill:#fff200;fill-opacity:1;fill-rule:nonzero;stroke:none"
           id="path40" /></g><text
         xml:space="preserve"
         style="font-style:normal;font-weight:normal;font-size:30px;line-height:1.25;font-family:sans-serif;letter-spacing:0px;word-spacing:0px;fill:#000000;fill-opacity:1;stroke:none;stroke-width:0.75"
         x="257.82349"
         y="-390.37137"
         id="text867"
         transform="scale(1,-1)"><tspan
           sodipodi:role="line"
           id="tspan865"
           x="257.82349"
           y="-390.37137"
           style="font-size:56px;fill:#ffffff;fill-opacity:1;stroke-width:0.75">EU</tspan></text><g
         id="g4"
         style="fill:#c80000;fill-opacity:1"
         transform="matrix(0.39858077,0,0,-0.39858077,194.28682,512.42368)"><path
           d="m 256,38.8 c -56.7,0 -110,22.6 -150,63.8 -40,41 -62,95.5 -62,153.4 0,57.9 22,112.4 61.9,153.4 40.1,41.1 93.3,63.8 150,63.8 56.7,0 110,-22.6 150,-63.8 C 446,368.4 468,313.9 468,256 468,198.1 446,143.6 406.1,102.6 366,61.5 312.7,38.8 256,38.8 Z M 130.3,385.7 C 64.8,318.4 60.9,211.4 118.7,139.5 L 369.6,397 c -31.9,27.3 -71.6,42.2 -113.6,42.2 -47.4,0 -92.1,-19 -125.7,-53.5 z M 393.3,372.6 142.4,115 C 174.3,87.7 214,72.8 256,72.8 c 47.4,0 92.1,19 125.7,53.5 65.5,67.3 69.4,174.3 11.6,246.3 z"
           id="path2"
           style="fill:#c80000;fill-opacity:1" /></g></g></g></svg>
